<?xml version="1.0" encoding="iso-8859-1"?>
<!-- Generator: Adobe Illustrator 21.1.0, SVG Export Plug-In . SVG Version: 6.00 Build 0)  -->
<svg xmlns="http://www.w3.org/2000/svg" xmlns:xlink="http://www.w3.org/1999/xlink" version="1.1" id="Layer_1" x="0px" y="0px" viewBox="0 0 64 64" style="enable-background:new 0 0 64 64;" xml:space="preserve" width="128px" height="128px">
<g>
	<path d="M31,2C15.009,2,2,15.01,2,31s13.009,29,29,29s29-13.01,29-29S46.991,2,31,2z M31,58C16.112,58,4,45.888,4,31S16.112,4,31,4   s27,12.112,27,27S45.888,58,31,58z"/>
	<path d="M31,50c-0.552,0-1,0.447-1,1v2c0,0.553,0.448,1,1,1s1-0.447,1-1v-2C32,50.447,31.552,50,31,50z"/>
	<path d="M37.013,50.077c-0.143-0.534-0.691-0.853-1.225-0.707c-0.534,0.143-0.85,0.691-0.707,1.225l0.518,1.932   c0.12,0.447,0.523,0.741,0.965,0.741c0.085,0,0.173-0.011,0.259-0.034c0.534-0.143,0.85-0.691,0.707-1.225L37.013,50.077z"/>
	<path d="M21.75,47.521c-0.478-0.276-1.09-0.113-1.366,0.366l-1,1.731c-0.276,0.479-0.113,1.09,0.366,1.366   c0.157,0.091,0.33,0.134,0.499,0.134c0.346,0,0.682-0.179,0.867-0.5l1-1.731C22.392,48.409,22.229,47.798,21.75,47.521z"/>
	<path d="M41.616,47.888c-0.276-0.479-0.888-0.643-1.366-0.366c-0.479,0.276-0.642,0.888-0.366,1.366l1,1.731   c0.185,0.321,0.521,0.5,0.867,0.5c0.169,0,0.342-0.043,0.499-0.134c0.479-0.276,0.642-0.888,0.366-1.366L41.616,47.888z"/>
	<path d="M26.212,49.37c-0.535-0.144-1.082,0.174-1.225,0.707l-0.518,1.932c-0.143,0.533,0.173,1.082,0.707,1.225   c0.087,0.023,0.174,0.034,0.259,0.034c0.441,0,0.846-0.294,0.965-0.741l0.518-1.932C27.062,50.062,26.746,49.513,26.212,49.37z"/>
	<path d="M43,30H32V19c0-0.553-0.448-1-1-1s-1,0.447-1,1v11H19c-0.552,0-1,0.447-1,1s0.448,1,1,1h11v11c0,0.553,0.448,1,1,1   s1-0.447,1-1V32h11c0.552,0,1-0.447,1-1S43.552,30,43,30z"/>
	<path d="M38.351,11.322c0.709,0.265,1.415,0.574,2.099,0.919c0.145,0.073,0.298,0.107,0.45,0.107c0.366,0,0.718-0.201,0.894-0.55   c0.249-0.492,0.051-1.094-0.442-1.343c-0.75-0.378-1.523-0.717-2.301-1.007c-0.518-0.193-1.094,0.069-1.287,0.587   S37.833,11.13,38.351,11.322z"/>
	<path d="M16.151,16.15c4.749-4.747,11.55-6.949,18.187-5.885c0.543,0.09,1.058-0.283,1.146-0.829   c0.087-0.545-0.284-1.059-0.829-1.146c-7.272-1.167-14.716,1.244-19.917,6.445c-8.968,8.968-8.968,23.56,0,32.527   c0.195,0.195,0.451,0.293,0.707,0.293s0.512-0.098,0.707-0.293c0.391-0.391,0.391-1.023,0-1.414   C7.963,37.661,7.963,24.339,16.151,16.15z"/>
	<path d="M47.263,14.736c-0.66-0.66-1.365-1.285-2.093-1.855c-0.434-0.34-1.063-0.264-1.404,0.171s-0.264,1.062,0.17,1.403   c0.666,0.521,1.309,1.092,1.913,1.695c8.188,8.188,8.188,21.511,0,29.699c-0.391,0.391-0.391,1.023,0,1.414   c0.195,0.195,0.451,0.293,0.707,0.293s0.512-0.098,0.707-0.293C56.231,38.296,56.231,23.704,47.263,14.736z"/>
</g>
</svg>
